<?xml version="1.0" encoding="UTF-8" standalone="no"?>
<!-- Generator: Adobe Illustrator 23.0.1, SVG Export Plug-In . SVG Version: 6.00 Build 0)  -->

<svg
   xmlns:dc="http://purl.org/dc/elements/1.1/"
   xmlns:cc="http://creativecommons.org/ns#"
   xmlns:rdf="http://www.w3.org/1999/02/22-rdf-syntax-ns#"
   xmlns:svg="http://www.w3.org/2000/svg"
   xmlns="http://www.w3.org/2000/svg"
   xmlns:sodipodi="http://sodipodi.sourceforge.net/DTD/sodipodi-0.dtd"
   xmlns:inkscape="http://www.inkscape.org/namespaces/inkscape"
   version="1.1"
   id="Layer_1"
   x="0px"
   y="0px"
   viewBox="0 0 200 200"
   style="enable-background:new 0 0 200 200;"
   xml:space="preserve"
   sodipodi:docname="TOBY GAME-06.svg"
   inkscape:version="0.92.2 5c3e80d, 2017-08-06"><metadata
     id="metadata63"><rdf:RDF><cc:Work
         rdf:about=""><dc:format>image/svg+xml</dc:format><dc:type
           rdf:resource="http://purl.org/dc/dcmitype/StillImage" /></cc:Work></rdf:RDF></metadata><defs
     id="defs61" /><sodipodi:namedview
     pagecolor="#ffffff"
     bordercolor="#666666"
     borderopacity="1"
     objecttolerance="10"
     gridtolerance="10"
     guidetolerance="10"
     inkscape:pageopacity="0"
     inkscape:pageshadow="2"
     inkscape:window-width="1047"
     inkscape:window-height="618"
     id="namedview59"
     showgrid="false"
     inkscape:zoom="1.18"
     inkscape:cx="100"
     inkscape:cy="100"
     inkscape:window-x="0"
     inkscape:window-y="0"
     inkscape:window-maximized="0"
     inkscape:current-layer="Layer_1" /><style
     type="text/css"
     id="style2">
	.st0{fill:#F076AD;}
	.st1{fill:#96D9F7;}
	.st2{fill:#F1672A;}
	.st3{fill:#006DB5;}
	.st4{fill:#F9A843;}
	.st5{fill:#F08F34;}
	.st6{fill:none;stroke:#533516;stroke-width:0.2604;stroke-miterlimit:10;}
	.st7{fill:none;stroke:#BE854F;stroke-width:0.2604;stroke-miterlimit:10;stroke-dasharray:2.6109,1.5666;}
	.st8{fill:#533516;}
	.st9{fill:none;stroke:#533516;stroke-width:2.0457;stroke-linecap:round;stroke-miterlimit:10;}
	.st10{fill:#FFFFFF;}
	.st11{fill:#ED5930;}
	.st12{fill:#00437C;}
	.st13{fill:none;stroke:#231F20;stroke-width:0.3403;stroke-miterlimit:10;}
	.st14{fill:#00BBE7;}
	.st15{fill:#CAA791;}
	.st16{fill:#00B381;}
	.st17{fill:#7FC578;}
	.st18{fill:#EC1652;}
	.st19{fill:#FFDD61;}
	.st20{fill:#F8C2D7;}
	.st21{fill:#643614;}
	.st22{fill:#BBBDBF;}
	.st23{fill:#808184;}
	.st24{fill:#A77F61;}
	.st25{clip-path:url(#SVGID_2_);fill:#F1672A;}
	.st26{clip-path:url(#SVGID_2_);}
	.st27{fill:#221F1F;}
	.st28{fill:#FFFFFF;stroke:#E5E6E6;stroke-width:0.3212;stroke-miterlimit:10;}
	.st29{fill:none;stroke:#221F1F;stroke-width:1.783;stroke-linecap:round;stroke-miterlimit:10;stroke-dasharray:0.9637,1.2849;}
	.st30{fill:none;}
	.st31{clip-path:url(#SVGID_4_);fill:#5E3316;stroke:#5E3316;stroke-width:1.1871;stroke-miterlimit:10;}
	.st32{clip-path:url(#SVGID_4_);fill:#C2986B;}
	.st33{clip-path:url(#SVGID_4_);fill:#FDDC0D;}
	.st34{clip-path:url(#SVGID_4_);fill:#A57C5D;}
	.st35{clip-path:url(#SVGID_4_);fill:#5E3316;}
	.st36{clip-path:url(#SVGID_4_);fill:#5E3316;stroke:#5E3316;stroke-width:1.7806;}
	.st37{clip-path:url(#SVGID_4_);fill:none;stroke:#5E3316;stroke-width:1.1871;stroke-miterlimit:10;}
	.st38{clip-path:url(#SVGID_4_);}
	.st39{fill:#231F20;}
	.st40{fill:#F69131;}
	.st41{fill:#868B8F;}
	.st42{fill:#505457;}
	.st43{fill:#17171B;}
	.st44{fill:#F4C231;}
	.st45{clip-path:url(#SVGID_6_);fill:#00B381;}
	.st46{clip-path:url(#SVGID_6_);}
	.st47{fill-rule:evenodd;clip-rule:evenodd;fill:#8A5D3B;}
	.st48{fill:#5E3316;}
	.st49{fill:#ED174F;}
	.st50{fill-rule:evenodd;clip-rule:evenodd;fill:#5E3316;}
	.st51{fill-rule:evenodd;clip-rule:evenodd;fill:#C2986B;}
	.st52{fill:#F9EC31;}
	.st53{fill:#55C6D9;}
	.st54{fill:#4CBC94;}
	.st55{fill:#FAAF40;}
	.st56{fill:#FFF100;}
	.st57{fill:#2CABE1;}
</style><rect
     class="st0"
     width="200"
     height="200"
     id="rect4" /><g
     id="g56"><path
       class="st22"
       d="M88.67,56.16c0,0-25.74-4.54-36.34,16.96c0,0-4.85,12.42-3.33,30.58c0,0,1.82,19.08-9.69,24.53   c0,0-10.6,5.15-13.93-18.47l-9.99,2.42c0,0,0.3,33.61,26.34,33.31c0,0,14.11,0.38,23.62-20.29c0,0,4.54-8.18,11.81-3.63   c0,0,4.85,10.3,0.6,40.27h24.53v-27.86c0,0,15.14,3.33,39.06-0.6c0,0,4.24,21.5,1.82,29.07c0,0,16.05,1.82,24.23-0.61   c0,0-5.76-19.08,0.91-35.73c0,0,3.33-12.11,3.03-19.38c0,0,1.52,11.51,6.66,14.54c0,0-4.24-17.26-2.42-29.68   c0,0,0.6-29.07-27.26-36.94c0,0-23.62-5.76-36.94-2.12L88.67,56.16z"
       id="path32" /><path
       class="st10"
       d="M68.67,96.59c1.88-0.33,3.2-3.5,3.35-5.07c0.23-2.55-1.2-6.84-4.16-6.74c-4.12,0.15-4.81,4.32-4.53,6.84   c0.25,2.22,1.48,4.02,2.47,4.42C65.8,96.03,66.62,96.96,68.67,96.59z"
       id="path34" /><path
       class="st39"
       d="M71,94.59c0.66-1.65-1.16-3.43-2.68-3.9c-1.89-0.59-3.95,0.92-4.18,2.89c-0.2,1.75,1.57,2.99,3.03,3.1   C69.14,96.82,70.1,96.12,71,94.59"
       id="path36" /><path
       class="st49"
       d="M84.03,161.85h-6.28c0,0,0.3-4.66,3.63-4.2c0,0,2.57,0.3,2.57,3.78L84.03,161.85z"
       id="path38" /><path
       class="st52"
       d="M95.94,161.85h6.33l0.03-1.32c-0.14-2.54-2.72-3.03-2.72-3.03c-3.48-0.61-3.64,3.79-3.64,3.79L95.94,161.85z"
       id="path40" /><path
       class="st53"
       d="M95.96,161.85h-6.25l-0.03-0.11c0,0,0.53-4.7,3.71-4.7c0,0,2.66,0.17,2.57,4.24L95.96,161.85z"
       id="path42" /><path
       class="st54"
       d="M89.74,161.85h-5.78l-0.08-0.42c0,0,0.3-4.24,3.33-3.48c0,0,1.68,0.63,2.46,3.65L89.74,161.85z"
       id="path44" /><path
       class="st55"
       d="M161.1,163c2.16-0.16,4.19-0.53,6.31-1.16c0.01-1.04-1.4-4.67-2.57-5.12c-3.23-1.23-3.75,3.31-3.81,5.3   L161.1,163z"
       id="path46" /><path
       class="st56"
       d="M161.11,163c-1.22,0.09-2.49,0.12-3.84,0.09c-0.68-0.01-1.26-0.02-1.8-0.02l0.02-0.93   c0.42-1.47,0.78-3.15,2.54-3.67c2.09-0.62,2.72,2.05,3,3.55L161.11,163z"
       id="path48" /><path
       class="st49"
       d="M155.47,163.08c-1.3,0-2.4,0.04-4.07,0.04c-0.52,0-1.59-0.08-2.6-0.16l0.17-0.95   c0.43-1.04,1.76-4.54,4.29-4.22c1.98,0.25,2.27,2.88,2.23,4.35L155.47,163.08z"
       id="path50" /><path
       class="st57"
       d="M148.79,162.96c-0.86-0.07-1.68-0.14-2.12-0.17c-1.29-0.09-2.25-0.05-3.48-0.34l0.18-0.67   c0.18-0.34,0.25-1.87,0.88-2.92c0.68-1.13,1.9-2.12,3.1-1.66c2,0.75,2.15,3.02,1.61,4.82L148.79,162.96z"
       id="path52" /><path
       class="st53"
       d="M84.13,59.83c0,0,13.93-15.44,26.04-8.18c0,0,12.95,9.97,9.53,30.05c-1.25,7.32-6.78,17.26-15.28,24.45   c0,0-15.01,12.49-24.23-2.12C80.19,104.04,89.88,86.78,84.13,59.83z"
       id="path54" /></g></svg>