<?xml version="1.0" encoding="utf-8"?>
<!-- Generator: Adobe Illustrator 23.0.1, SVG Export Plug-In . SVG Version: 6.00 Build 0)  -->
<svg version="1.1" id="Layer_1" xmlns="http://www.w3.org/2000/svg" xmlns:xlink="http://www.w3.org/1999/xlink" x="0px" y="0px"
	 viewBox="0 0 200 200" style="enable-background:new 0 0 200 200;" xml:space="preserve">
<style type="text/css">
	.st0{fill:#F076AD;}
	.st1{fill:#96D9F7;}
	.st2{fill:#F1672A;}
	.st3{fill:#006DB5;}
	.st4{fill:#F9A843;}
	.st5{fill:#F08F34;}
	.st6{fill:none;stroke:#533516;stroke-width:0.2604;stroke-miterlimit:10;}
	.st7{fill:none;stroke:#BE854F;stroke-width:0.2604;stroke-miterlimit:10;stroke-dasharray:2.6109,1.5666;}
	.st8{fill:#533516;}
	.st9{fill:none;stroke:#533516;stroke-width:2.0457;stroke-linecap:round;stroke-miterlimit:10;}
	.st10{fill:#FFFFFF;}
	.st11{fill:#ED5930;}
	.st12{fill:#00437C;}
	.st13{fill:none;stroke:#231F20;stroke-width:0.3403;stroke-miterlimit:10;}
	.st14{fill:#00BBE7;}
	.st15{fill:#CAA791;}
	.st16{fill:#00B381;}
	.st17{fill:#7FC578;}
	.st18{fill:#EC1652;}
	.st19{fill:#FFDD61;}
	.st20{fill:#F8C2D7;}
	.st21{fill:#643614;}
	.st22{fill:#BBBDBF;}
	.st23{fill:#808184;}
	.st24{fill:#A77F61;}
	.st25{clip-path:url(#SVGID_2_);fill:#F1672A;}
	.st26{clip-path:url(#SVGID_2_);}
	.st27{fill:#221F1F;}
	.st28{fill:#FFFFFF;stroke:#E5E6E6;stroke-width:0.3212;stroke-miterlimit:10;}
	.st29{fill:none;stroke:#221F1F;stroke-width:1.783;stroke-linecap:round;stroke-miterlimit:10;stroke-dasharray:0.9637,1.2849;}
	.st30{fill:none;}
	.st31{clip-path:url(#SVGID_4_);fill:#5E3316;stroke:#5E3316;stroke-width:1.1871;stroke-miterlimit:10;}
	.st32{clip-path:url(#SVGID_4_);fill:#C2986B;}
	.st33{clip-path:url(#SVGID_4_);fill:#FDDC0D;}
	.st34{clip-path:url(#SVGID_4_);fill:#A57C5D;}
	.st35{clip-path:url(#SVGID_4_);fill:#5E3316;}
	.st36{clip-path:url(#SVGID_4_);fill:#5E3316;stroke:#5E3316;stroke-width:1.7806;}
	.st37{clip-path:url(#SVGID_4_);fill:none;stroke:#5E3316;stroke-width:1.1871;stroke-miterlimit:10;}
	.st38{clip-path:url(#SVGID_4_);}
	.st39{fill:#231F20;}
	.st40{fill:#F69131;}
	.st41{fill:#868B8F;}
	.st42{fill:#505457;}
	.st43{fill:#17171B;}
	.st44{fill:#F4C231;}
	.st45{clip-path:url(#SVGID_6_);fill:#00B381;}
	.st46{clip-path:url(#SVGID_6_);}
	.st47{fill-rule:evenodd;clip-rule:evenodd;fill:#8A5D3B;}
	.st48{fill:#5E3316;}
	.st49{fill:#ED174F;}
	.st50{fill-rule:evenodd;clip-rule:evenodd;fill:#5E3316;}
	.st51{fill-rule:evenodd;clip-rule:evenodd;fill:#C2986B;}
	.st52{fill:#F9EC31;}
	.st53{fill:#55C6D9;}
	.st54{fill:#4CBC94;}
	.st55{fill:#FAAF40;}
	.st56{fill:#FFF100;}
	.st57{fill:#2CABE1;}
</style>
<g>
	<defs>
		<rect id="SVGID_5_" width="200" height="200"/>
	</defs>
	<clipPath id="SVGID_2_">
		<use xlink:href="#SVGID_5_"  style="overflow:visible;"/>
	</clipPath>
	<rect style="clip-path:url(#SVGID_2_);fill:#00B381;" width="200" height="200"/>
	<g class="st26">
		<path class="st47" d="M109.89,115.3c-7.48-9.83-11.93-19.04-25.74-21.19c-7.09-0.5-22.21,5.68-32.91,3.54
			c-16.66-3.33-21.19-12.22-24.12-25.52c-0.17-0.77,0.7-2.78,2.68-3.31c3.15-0.84,8.26-2.13,13.5-3.53
			c22.35-8.61,22.09-9.79,29.15-15.04c7.04-4.01,10.55-9.1,24.45-10.31c0,0,12.15-0.82,17.88,2.85c6.14,2.71,14.8,13.46,22.83,19.32
			"/>
		<g>
			<path class="st47" d="M380.76,66.23c-0.52,1.09-1.07,2.17-1.67,3.2c-4.55,4.35-13.88,1.47-22.22,1.82
				c-14.42,0.6-13.4,1.2-23.43,1.2c-2.91,0-12.19-0.15-14.65-0.21l-125.81,4.21c-11.54-0.29-18.76,0.76-26.43-0.6
				c-2.6-0.02-5.11-0.36-7.64-1.08c-7.04-1.34-14.94-4.69-20.41-10.4l-0.89-0.26l-23.99,50.21c0.57,1.23,1.17,2.47,1.82,3.72
				c2.28,4.36,4.89,13.8,6.14,21.69c1.56,8.56,2.52,12.43,3.12,19.49c0.54,6.42,1.39,13.26,1.09,18.57
				c-0.37,6.59-8.31,9.3-4.01,14.93c13.77,3.2,15.8-5.26,17.48-16.75c1.95-13.24-1.47-29.55,1.09-38.97
				c11.09-4.72,10.45,8.56,10.56,15.66c0.1,6,0.52,17.05-0.36,21.49c-1,5.01-7.56,11.74-5.1,16.38c1.89,3.58,12.09,4.75,15.29,1.1
				c1.74-1.98,2.28-6.68,2.92-10.2c2.57-14.14,3.28-28.29,3.64-42.25c7.37-1.46,16.7-2.25,26.03-2.42l125.81-4.21
				c9.33-0.16,18.67,0.3,26.05,1.33c0.23,5.02,1.24,10.91,1.85,16.91c4.51,0.25,9.05,1.58,13.89,4c0.05-7.08-0.34-14.13-0.06-19.82
				c3.01-1.25,7.77-0.7,9.83,1.09c0.38,7.7,1.51,15.83,0.36,24.77c-0.4,3.11-2.01,5.72-2.92,8.02c-1.01,2.57-3.03,5.92-2.91,8.37
				c0.48,9.53,13.39,2.98,16.02,0c3.55-4.03,4.05-12.11,4.74-19.3c1.48-15.59,0.3-30.43-0.73-44.44
				c-0.73-9.98-1.71-22.43,1.82-29.13c0.77-1.46,1.04-3.1,1.46-4.01c0.86-1.92,1.92-3.84,3.03-5.76
				C387.56,72.65,383.95,69.74,380.76,66.23z"/>
			<path class="st10" d="M77.91,66.95c-0.78-3.57,1.47-7.1,5.03-7.88c3.56-0.78,7.09,1.48,7.88,5.04c0.79,3.57-1.48,7.11-5.04,7.89
				C82.22,72.77,78.69,70.51,77.91,66.95"/>
			<path class="st48" d="M81.93,66.93c-0.55-2.52,1.04-5.02,3.56-5.57c2.52-0.55,5.01,1.05,5.57,3.56c0.56,2.52-1.04,5.02-3.56,5.58
				C84.97,71.05,82.48,69.45,81.93,66.93"/>
			<path class="st49" d="M131.18,58.41c-0.25,4.2-0.85,10.78-2.93,14.8c-2.32,4.47-4.68,8.7-7.63,12.72
				c-7.42,10.11-19.56,15.5-28.37,23.77c2.57,2.27,6.5,0.95,7.73,0.29c0,0,4.67-3.09,7.38-5.08c7.18-5.28,8.85-6.18,14.75-11.93
				c6.19-6.02,10.92-13.32,13.41-21.75c0.62-2.09,2.03-6.44,1.6-9.36C136.61,58.53,132.66,58.18,131.18,58.41"/>
			<path class="st50" d="M45.2,70.71c0.54-1.16,0.87-4.67,0.82-5.2c-0.65,0.25-1.33,0.52-2.03,0.78
				c-5.52,1.48-10.89,2.83-13.99,3.66c-1.69,0.45-2.44,2.04-2.31,2.63c0.96,4.44,2.08,8.4,3.74,11.83
				C38.46,81.62,42.04,77.48,45.2,70.71z"/>
			<path class="st51" d="M120.75,48.37c4.13,5.07,2.23,13.76,3.21,20.07c1.58,10.21,0.28,12.95,3.12,22.76
				c1.89,6.56,1.84,14.25-1.79,20.45c-3.86,6.61-8.55,11.38-16.74,13.25c-7.97,1.82-15.68-2.29-19.45-9.02
				c-5.87-10.48,1.79-20,5.76-29.88c3-7.46,4.76-13.46,6.1-21.28c1.3-7.6,0.88-15.71,0.52-22.37
				C101.49,42.35,114.63,40.85,120.75,48.37z"/>
		</g>
	</g>
</g>
</svg>
