<?xml version="1.0" encoding="utf-8"?>
<!-- Generator: Adobe Illustrator 23.0.1, SVG Export Plug-In . SVG Version: 6.00 Build 0)  -->
<svg version="1.1" id="Layer_1" xmlns="http://www.w3.org/2000/svg" xmlns:xlink="http://www.w3.org/1999/xlink" x="0px" y="0px"
	 viewBox="0 0 200 200" style="enable-background:new 0 0 200 200;" xml:space="preserve">
<style type="text/css">
	.st0{fill:#F076AD;}
	.st1{fill:#96D9F7;}
	.st2{fill:#F1672A;}
	.st3{fill:#006DB5;}
	.st4{fill:#F9A843;}
	.st5{fill:#F08F34;}
	.st6{fill:none;stroke:#533516;stroke-width:0.2604;stroke-miterlimit:10;}
	.st7{fill:none;stroke:#BE854F;stroke-width:0.2604;stroke-miterlimit:10;stroke-dasharray:2.6109,1.5666;}
	.st8{fill:#533516;}
	.st9{fill:none;stroke:#533516;stroke-width:2.0457;stroke-linecap:round;stroke-miterlimit:10;}
	.st10{fill:#FFFFFF;}
	.st11{fill:#ED5930;}
	.st12{fill:#00437C;}
	.st13{fill:none;stroke:#231F20;stroke-width:0.3403;stroke-miterlimit:10;}
	.st14{fill:#00BBE7;}
	.st15{fill:#CAA791;}
	.st16{fill:#00B381;}
	.st17{fill:#7FC578;}
	.st18{fill:#EC1652;}
	.st19{fill:#FFDD61;}
	.st20{fill:#F8C2D7;}
	.st21{fill:#643614;}
	.st22{fill:#BBBDBF;}
	.st23{fill:#808184;}
	.st24{fill:#A77F61;}
	.st25{clip-path:url(#SVGID_2_);fill:#F1672A;}
	.st26{clip-path:url(#SVGID_2_);}
	.st27{fill:#221F1F;}
	.st28{fill:#FFFFFF;stroke:#E5E6E6;stroke-width:0.3212;stroke-miterlimit:10;}
	.st29{fill:none;stroke:#221F1F;stroke-width:1.783;stroke-linecap:round;stroke-miterlimit:10;stroke-dasharray:0.9637,1.2849;}
	.st30{fill:none;}
	.st31{clip-path:url(#SVGID_4_);fill:#5E3316;stroke:#5E3316;stroke-width:1.1871;stroke-miterlimit:10;}
	.st32{clip-path:url(#SVGID_4_);fill:#C2986B;}
	.st33{clip-path:url(#SVGID_4_);fill:#FDDC0D;}
	.st34{clip-path:url(#SVGID_4_);fill:#A57C5D;}
	.st35{clip-path:url(#SVGID_4_);fill:#5E3316;}
	.st36{clip-path:url(#SVGID_4_);fill:#5E3316;stroke:#5E3316;stroke-width:1.7806;}
	.st37{clip-path:url(#SVGID_4_);fill:none;stroke:#5E3316;stroke-width:1.1871;stroke-miterlimit:10;}
	.st38{clip-path:url(#SVGID_4_);}
	.st39{fill:#231F20;}
	.st40{fill:#F69131;}
	.st41{fill:#868B8F;}
	.st42{fill:#505457;}
	.st43{fill:#17171B;}
	.st44{fill:#F4C231;}
	.st45{clip-path:url(#SVGID_6_);fill:#00B381;}
	.st46{clip-path:url(#SVGID_6_);}
	.st47{fill-rule:evenodd;clip-rule:evenodd;fill:#8A5D3B;}
	.st48{fill:#5E3316;}
	.st49{fill:#ED174F;}
	.st50{fill-rule:evenodd;clip-rule:evenodd;fill:#5E3316;}
	.st51{fill-rule:evenodd;clip-rule:evenodd;fill:#C2986B;}
	.st52{fill:#F9EC31;}
	.st53{fill:#55C6D9;}
	.st54{fill:#4CBC94;}
	.st55{fill:#FAAF40;}
	.st56{fill:#FFF100;}
	.st57{fill:#2CABE1;}
</style>
<rect y="0" class="st2" width="200" height="200"/>
<g>
	<defs>
		<rect id="SVGID_1_" y="0" width="200" height="200"/>
	</defs>
	<clipPath id="SVGID_2_">
		<use xlink:href="#SVGID_1_"  style="overflow:visible;"/>
	</clipPath>
	<rect y="0" class="st25" width="200" height="200"/>
	<g class="st26">
		<path class="st27" d="M157.35,78.89c0,0,18.79-16.8,0-31.89s-30.39,8.1-30.39,8.1L157.35,78.89z"/>
		<path class="st27" d="M75.13,51.89c0,0-8.38-23.77-29.49-12.13s-4.07,31.19-4.07,31.19L75.13,51.89z"/>
		<path class="st27" d="M53.77,148.99c-31.2,17.7-47.78,58-55.09,76.27c-7.19,17.97-5.09,26.23,6.94,30.51s23.83-6.49,29.88-16.74
			s13.47-27.06,13.47-27.06l27.67-54.74C76.63,157.24,67.32,141.3,53.77,148.99z"/>
		<path class="st27" d="M147.87,150.56c29.86,13.61,37.16,60.74,41.57,79.92c4.34,18.86,1,26.7-11.55,29.08
			s-22.55-10.07-26.95-21.14c-4.4-11.06-9.15-28.81-9.15-28.81l-15.54-51.25C126.25,158.37,132.62,143.61,147.87,150.56z"/>
		<path class="st10" d="M67.82,156.86c0,0-23.76,35.71-23.88,66.81c-0.12,31.1,4.61,46.39,21.62,56.81
			c17.02,10.42,29.13,9.04,43.97,3.29c14.85-5.75,30.51-17.47,37.15-48.73c6.65-31.26-10.46-68.77-12.26-72.88
			c-1.79-4.11-1.79-4.11-1.79-4.11L67.82,156.86z"/>
		<path class="st28" d="M81.12,49.26c0,0-50.45,2.71-53.33,59.53c-1.44,41.17,42.7,58.57,71.52,56.25s70.26-4.06,68.28-53.93
			C165.11,48.43,100.58,46.94,81.12,49.26z"/>
		<path class="st27" d="M88.14,109.09c2.46-1.39,6.3-3.14,14.87,0.3c8.72,3.5-3.34,14.21-6.27,13.8
			c-2.69-0.38-12.06-7.11-9.71-12.73C87.24,109.95,87.61,109.51,88.14,109.09z"/>
		<path class="st29" d="M84.47,140.77c0,0,3.27,7.13,12.78,7.13s11.29-7.73,11.29-7.73"/>
		<line class="st29" x1="96.21" y1="120.9" x2="97.1" y2="147.35"/>
		<path class="st27" d="M72.17,71.41c-8.39,0.79-14.34,5.29-17.81,10.7l-0.02-0.02c0,0-6.18,8.81-4.5,18.55
			c1.69,9.74,7.87,12.56,14.43,13.3c6.25,0.71,13.85-2.5,18.77-10.1c1.1-1.28,2.09-2.8,2.91-4.62
			C91.55,86.83,89.64,69.78,72.17,71.41z"/>
		<path class="st27" d="M146.61,81.91l-0.05,0.03c-3.45-5.49-9.45-10.1-17.94-10.89c-17.47-1.64-19.38,15.41-13.78,27.82
			c0.86,1.9,1.9,3.48,3.06,4.79c4.92,7.61,12.53,10.82,18.78,10.1c6.56-0.75,12.74-3.56,14.43-13.3
			C152.8,90.71,146.61,81.91,146.61,81.91z"/>
		<g>
			<circle class="st10" cx="70.55" cy="89.92" r="11.65"/>
			<circle class="st27" cx="75.25" cy="90.88" r="6.86"/>
		</g>
		<g>
			<circle class="st10" cx="129.39" cy="89.36" r="11.65"/>
			<circle class="st27" cx="134.09" cy="90.32" r="6.86"/>
		</g>
		<rect x="-5.77" y="7" class="st30" width="205.59" height="203.02"/>
	</g>
</g>
</svg>
