<?xml version="1.0" encoding="utf-8"?>
<!-- Generator: Adobe Illustrator 23.0.1, SVG Export Plug-In . SVG Version: 6.00 Build 0)  -->
<svg version="1.1" id="Layer_1" xmlns="http://www.w3.org/2000/svg" xmlns:xlink="http://www.w3.org/1999/xlink" x="0px" y="0px"
	 viewBox="0 0 200 200" style="enable-background:new 0 0 200 200;" xml:space="preserve">
<style type="text/css">
	.st0{fill:#F076AD;}
	.st1{fill:#96D9F7;}
	.st2{fill:#F1672A;}
	.st3{fill:#006DB5;}
	.st4{fill:#F9A843;}
	.st5{fill:#F08F34;}
	.st6{fill:none;stroke:#533516;stroke-width:0.2604;stroke-miterlimit:10;}
	.st7{fill:none;stroke:#BE854F;stroke-width:0.2604;stroke-miterlimit:10;stroke-dasharray:2.6109,1.5666;}
	.st8{fill:#533516;}
	.st9{fill:none;stroke:#533516;stroke-width:2.0457;stroke-linecap:round;stroke-miterlimit:10;}
	.st10{fill:#FFFFFF;}
	.st11{fill:#ED5930;}
	.st12{fill:#00437C;}
	.st13{fill:none;stroke:#231F20;stroke-width:0.3403;stroke-miterlimit:10;}
	.st14{fill:#00BBE7;}
	.st15{fill:#CAA791;}
	.st16{fill:#00B381;}
	.st17{fill:#7FC578;}
	.st18{fill:#EC1652;}
	.st19{fill:#FFDD61;}
	.st20{fill:#F8C2D7;}
	.st21{fill:#643614;}
	.st22{fill:#BBBDBF;}
	.st23{fill:#808184;}
	.st24{fill:#A77F61;}
	.st25{clip-path:url(#SVGID_2_);fill:#F1672A;}
	.st26{clip-path:url(#SVGID_2_);}
	.st27{fill:#221F1F;}
	.st28{fill:#FFFFFF;stroke:#E5E6E6;stroke-width:0.3212;stroke-miterlimit:10;}
	.st29{fill:none;stroke:#221F1F;stroke-width:1.783;stroke-linecap:round;stroke-miterlimit:10;stroke-dasharray:0.9637,1.2849;}
	.st30{fill:none;}
	.st31{clip-path:url(#SVGID_4_);fill:#5E3316;stroke:#5E3316;stroke-width:1.1871;stroke-miterlimit:10;}
	.st32{clip-path:url(#SVGID_4_);fill:#C2986B;}
	.st33{clip-path:url(#SVGID_4_);fill:#FDDC0D;}
	.st34{clip-path:url(#SVGID_4_);fill:#A57C5D;}
	.st35{clip-path:url(#SVGID_4_);fill:#5E3316;}
	.st36{clip-path:url(#SVGID_4_);fill:#5E3316;stroke:#5E3316;stroke-width:1.7806;}
	.st37{clip-path:url(#SVGID_4_);fill:none;stroke:#5E3316;stroke-width:1.1871;stroke-miterlimit:10;}
	.st38{clip-path:url(#SVGID_4_);}
	.st39{fill:#231F20;}
	.st40{fill:#F69131;}
	.st41{fill:#868B8F;}
	.st42{fill:#505457;}
	.st43{fill:#17171B;}
	.st44{fill:#F4C231;}
	.st45{clip-path:url(#SVGID_6_);fill:#00B381;}
	.st46{clip-path:url(#SVGID_6_);}
	.st47{fill-rule:evenodd;clip-rule:evenodd;fill:#8A5D3B;}
	.st48{fill:#5E3316;}
	.st49{fill:#ED174F;}
	.st50{fill-rule:evenodd;clip-rule:evenodd;fill:#5E3316;}
	.st51{fill-rule:evenodd;clip-rule:evenodd;fill:#C2986B;}
	.st52{fill:#F9EC31;}
	.st53{fill:#55C6D9;}
	.st54{fill:#4CBC94;}
	.st55{fill:#FAAF40;}
	.st56{fill:#FFF100;}
	.st57{fill:#2CABE1;}
</style>
<rect y="0" class="st4" width="200" height="200"/>
<g>
	<defs>
		<rect id="SVGID_3_" y="0" width="200" height="200"/>
	</defs>
	<clipPath id="SVGID_2_">
		<use xlink:href="#SVGID_3_"  style="overflow:visible;"/>
	</clipPath>
	<path style="clip-path:url(#SVGID_2_);fill:#5E3316;stroke:#5E3316;stroke-width:1.1871;stroke-miterlimit:10;" d="M110.84,143.22
		c0.48,1.82,27.65,1.6,42.47-7.1c14.81-8.69,21.57-25.33,21.94-36.15c0.3-8.58-3.43-23.17-9.14-29.98
		c-3.67-4.38-4.96-7.41-10.57-9.63c-6-2.37-12.51-3.11-13.96-5.72c-0.65-2.42,6.34-1.63,11.08-1.43
		c-2.76-1.37-12.86-8.02-9.07-12.12c20.98-6.73,41.23,23.93,45.96,54.92c2.35,15.4-4.57,31.05-13.95,41.56
		c-14.23,15.94-56.34,30.42-72.09,22.41"/>
	<polygon style="clip-path:url(#SVGID_2_);fill:#C2986B;" points="56.04,93.77 66.18,117.65 103.82,116.29 130.16,118.22 
		140.94,104.52 140.33,83.3 137.4,73.22 120.08,63.14 90.05,64.31 67.26,64.08 61.7,77.13 	"/>
	<path style="clip-path:url(#SVGID_2_);fill:#5E3316;stroke:#5E3316;stroke-width:1.1871;stroke-miterlimit:10;" d="M78.43,166.74
		c-0.75-1.72-27.57,2.67-40.87,13.55c-13.29,10.87-17.41,28.35-16.12,39.09c1.03,8.52,6.96,22.37,13.65,28.22
		c4.3,3.76,6.04,6.56,11.93,7.89c6.29,1.42,12.84,1.15,14.67,3.51c1.01,2.29-6.02,2.59-10.72,3.12c2.94,0.93,13.94,5.94,10.83,10.58
		c-19.69,9.88-44.42-17.3-53.86-47.19c-4.69-14.85-0.27-31.38,7.39-43.21c11.61-17.94,50.98-38.73,67.78-33.24"/>
	<path style="clip-path:url(#SVGID_2_);fill:#FDDC0D;" d="M197.21,39.27c-4.92,7.85-14.42,17.14-23.11,20.39
		c-10.53,3.94-29.43,1.39-38.78-5.46c-7.09-5.2-19.94-26.34-15.61-35.48c1.62-3.43,3.03-3.47,5.5-0.98
		c4.31,4.34,7.49,12.07,11.07,17.24c7.89,11.38,27.83,13.99,39.51,10.32c4.87-1.53,10.33-2.1,14.94-4.48
		c2.2-1.14,5.81-5.46,7.59-2.6L197.21,39.27z"/>
	<path style="clip-path:url(#SVGID_2_);fill:#5E3316;stroke:#5E3316;stroke-width:1.1871;stroke-miterlimit:10;" d="M77.94,136.28
		c-5.85,10.33-10.85,25.21-14.21,36.96c-3.76,13.14-8.14,27.68-9.59,41.35c-0.46,4.36,6.28,19.48,8.6,23.75
		c4.24,7.79,29.15,4.45,36.93,4.56c10.05,0.14,26.7,4.21,30.28-5.54c1.24-3.38,5.06-14.26,4.74-17.83
		c-1.42-16.06-5-31.56-7.52-47.49c-1.88-11.92-7.93-23.58-10.46-35.4c-0.84-3.93-1.01-8.46-4.07-11.36
		c-8.01-7.61-24.93-0.59-36.12-1.42"/>
	<path style="clip-path:url(#SVGID_2_);fill:#5E3316;stroke:#5E3316;stroke-width:1.1871;stroke-miterlimit:10;" d="M138.28,79.8
		c0,0,7.92-3.69,18.74,3.89c0,0,7.12,6.24,5.14,19.7c0,0-3.1,15.56-14.89,17.72c0,0-4.52,2.72-13.3-1.25l-2.23-2.73L138.28,79.8z"/>
	<path style="clip-path:url(#SVGID_2_);fill:#A57C5D;" d="M139.04,84.84c0,0,4.72-3.34,13.03,2.49c0,0,5.47,4.8,3.95,15.13
		c0,0-2.38,11.95-11.44,13.61c0,0-3.47,2.09-10.22-0.96l-1.72-2.1L139.04,84.84z"/>
	<path style="clip-path:url(#SVGID_2_);fill:#5E3316;stroke:#5E3316;stroke-width:1.1871;stroke-miterlimit:10;" d="M59.85,74.61
		c0,0-15.22-2.56-23.73,16.05c0,0-6.89,17.76,11.71,26.63c0,0,13.36,5.35,19.09-2.49l-4.55-21.99L59.85,74.61z"/>
	<path style="clip-path:url(#SVGID_2_);fill:#A57C5D;" d="M60.08,79.8c0,0-10.65-2.78-17.34,11.84c0,0-4.5,14.87,7.9,21.7
		c0,0,10.5,4.2,15-1.96L62.06,94.1L60.08,79.8z"/>
	<path style="clip-path:url(#SVGID_2_);fill:#5E3316;" d="M66.5,58.97c0,0-15.09,12.21-6.61,39.81c0,0,3.43,11.12,5.11,14.36
		l4.83-1.11c0,0-13.41-29.35-0.65-40.9c0,0,9.82-7.73,22.56,0.8c0,0,5.57,4.24,7.18,10.51c0,0,4.17-12.12,16.31-13.52
		c0,0,15.29-2.5,19.16,11.84c0,0,3.91,13.12-5.39,32.19l4.55,2.61c0,0,26.66-44.77-11.96-62.73C121.6,52.85,91.62,37.62,66.5,58.97z
		"/>
	<path style="clip-path:url(#SVGID_2_);fill:#A57C5D;" d="M66.6,112.06c0,0-23.93,12.14-4.05,30.68c0,0,16.48,11.65,52.23,5.84
		c0,0,28.15-5.62,25.02-22.5c0,0,0.6-7.18-8.85-12.64C130.96,113.44,108.89,101.63,66.6,112.06z"/>
	<path style="clip-path:url(#SVGID_2_);fill:#5E3316;stroke:#5E3316;stroke-width:1.7806;" d="M93.89,113.97
		c-0.03,1.08-0.41,1.95-0.86,1.93c-0.44-0.01-0.77-0.9-0.74-1.98c0.03-1.08,0.41-1.94,0.85-1.93
		C93.59,112.01,93.92,112.9,93.89,113.97z"/>
	<path style="clip-path:url(#SVGID_2_);fill:#5E3316;stroke:#5E3316;stroke-width:1.7806;" d="M99.49,113.95
		c-0.03,1.08-0.41,1.94-0.85,1.93c-0.44-0.01-0.77-0.89-0.74-1.97c0.03-1.08,0.41-1.95,0.85-1.94
		C99.19,111.99,99.52,112.87,99.49,113.95z"/>
	<path style="clip-path:url(#SVGID_2_);fill:none;stroke:#5E3316;stroke-width:1.1871;stroke-miterlimit:10;" d="M64.99,121.56
		c0,0-2.58,21.98,35.7,19.1c0,0,31.25-5.04,28.84-17.71"/>
	<path style="clip-path:url(#SVGID_2_);fill:#5E3316;" d="M164.74,67.14c-2.35-1.7-11.76-5.56-12.15-8.16
		c2.54-2.62,7.62,0.76,11.45,2.24c2.05,0.79,3.17,1.24,6.66,0.27"/>
	<g class="st26">
		<circle class="st10" cx="116.57" cy="97.24" r="6.36"/>
		<circle class="st39" cx="119.23" cy="95.49" r="3.18"/>
	</g>
	<g class="st26">
		<circle class="st10" cx="81.8" cy="96.78" r="6.36"/>
		<circle class="st39" cx="84.47" cy="95.04" r="3.18"/>
	</g>
</g>
</svg>
