<?xml version="1.0" encoding="utf-8"?>
<!-- Generator: Adobe Illustrator 23.0.1, SVG Export Plug-In . SVG Version: 6.00 Build 0)  -->
<svg version="1.1" id="Layer_1" xmlns="http://www.w3.org/2000/svg" xmlns:xlink="http://www.w3.org/1999/xlink" x="0px" y="0px"
	 viewBox="0 0 200 200" style="enable-background:new 0 0 200 200;" xml:space="preserve">
<style type="text/css">
	.st0{fill:#F076AD;}
	.st1{fill:#96D9F7;}
	.st2{fill:#F1672A;}
	.st3{fill:#006DB5;}
	.st4{fill:#F9A843;}
	.st5{fill:#F08F34;}
	.st6{fill:none;stroke:#533516;stroke-width:0.2604;stroke-miterlimit:10;}
	.st7{fill:none;stroke:#BE854F;stroke-width:0.2604;stroke-miterlimit:10;stroke-dasharray:2.6109,1.5666;}
	.st8{fill:#533516;}
	.st9{fill:none;stroke:#533516;stroke-width:2.0457;stroke-linecap:round;stroke-miterlimit:10;}
	.st10{fill:#FFFFFF;}
	.st11{fill:#ED5930;}
	.st12{fill:#00437C;}
	.st13{fill:none;stroke:#231F20;stroke-width:0.3403;stroke-miterlimit:10;}
	.st14{fill:#00BBE7;}
	.st15{fill:#CAA791;}
	.st16{fill:#00B381;}
	.st17{fill:#7FC578;}
	.st18{fill:#EC1652;}
	.st19{fill:#FFDD61;}
	.st20{fill:#F8C2D7;}
	.st21{fill:#643614;}
	.st22{fill:#BBBDBF;}
	.st23{fill:#808184;}
	.st24{fill:#A77F61;}
	.st25{clip-path:url(#SVGID_2_);fill:#F1672A;}
	.st26{clip-path:url(#SVGID_2_);}
	.st27{fill:#221F1F;}
	.st28{fill:#FFFFFF;stroke:#E5E6E6;stroke-width:0.3212;stroke-miterlimit:10;}
	.st29{fill:none;stroke:#221F1F;stroke-width:1.783;stroke-linecap:round;stroke-miterlimit:10;stroke-dasharray:0.9637,1.2849;}
	.st30{fill:none;}
	.st31{clip-path:url(#SVGID_4_);fill:#5E3316;stroke:#5E3316;stroke-width:1.1871;stroke-miterlimit:10;}
	.st32{clip-path:url(#SVGID_4_);fill:#C2986B;}
	.st33{clip-path:url(#SVGID_4_);fill:#FDDC0D;}
	.st34{clip-path:url(#SVGID_4_);fill:#A57C5D;}
	.st35{clip-path:url(#SVGID_4_);fill:#5E3316;}
	.st36{clip-path:url(#SVGID_4_);fill:#5E3316;stroke:#5E3316;stroke-width:1.7806;}
	.st37{clip-path:url(#SVGID_4_);fill:none;stroke:#5E3316;stroke-width:1.1871;stroke-miterlimit:10;}
	.st38{clip-path:url(#SVGID_4_);}
	.st39{fill:#231F20;}
	.st40{fill:#F69131;}
	.st41{fill:#868B8F;}
	.st42{fill:#505457;}
	.st43{fill:#17171B;}
	.st44{fill:#F4C231;}
	.st45{clip-path:url(#SVGID_6_);fill:#00B381;}
	.st46{clip-path:url(#SVGID_6_);}
	.st47{fill-rule:evenodd;clip-rule:evenodd;fill:#8A5D3B;}
	.st48{fill:#5E3316;}
	.st49{fill:#ED174F;}
	.st50{fill-rule:evenodd;clip-rule:evenodd;fill:#5E3316;}
	.st51{fill-rule:evenodd;clip-rule:evenodd;fill:#C2986B;}
	.st52{fill:#F9EC31;}
	.st53{fill:#55C6D9;}
	.st54{fill:#4CBC94;}
	.st55{fill:#FAAF40;}
	.st56{fill:#FFF100;}
	.st57{fill:#2CABE1;}
</style>
<rect x="0" y="0" class="st3" width="200" height="200"/>
<g>
	<path class="st5" d="M25.41,121.94c-0.46-8.13,12.47-35.17,9.53-42.57c-6.58-16.59-9.86-35.45-6.1-40.98s29.17-5.77,38.92,9.95
		c1.26,2.03,5.01-0.42,7.27-0.99c20.28-5.12,41.03-4.57,60.81,1.89c0.19-0.39,0.4-0.82,0.8-1.16c13.3-11.35,37.88-13.46,40.99-8.89
		s-3.27,24.73-12.89,39.15c-1.33,1.99,1.27,5.39,1.76,7.69c2.03,9.61,6.33,39.3,1.32,46.96c-5.04,7.71-41.65,33.43-51.9,37.58
		c-8.51,3.44-17.82,6.05-27,3.87c-8.89-2.11-16.61-8.4-23.89-13.61C56.52,154.76,25.93,131.17,25.41,121.94z"/>
	<path class="st8" d="M31.24,51.16c0.02-1.79,0.52-4.04,2.27-4.39c1.04-0.21,2.05,0.4,2.94,0.98c4.93,3.2,9.93,6.48,13.67,11.01
		c1.09,1.32,2.09,2.81,2.3,4.51c0.26,2.17-0.84,4.33-2.41,5.85s-3.56,2.53-5.51,3.51C37.8,76,36.88,74.44,34.2,67.47
		C32.2,62.28,31.19,56.72,31.24,51.16z"/>
	<path class="st8" d="M153.06,57.1c5.9-2.99,11.82-5.99,17.96-8.45c0.99-0.4,2.02-0.78,3.08-0.72c1.06,0.06,2.17,0.7,2.42,1.74
		c0.27,1.09-0.43,2.15-1.08,3.07c-3.99,5.6-7.38,11.63-10.1,17.95C161.11,80.57,145.69,60.83,153.06,57.1z"/>
	<path class="st9" d="M98.54,162.36c-0.19-5.58-0.06-11.19,0.4-16.81"/>
	<path class="st10" d="M131.68,86.49c-3.03-0.44-6.32,0.41-8.48,2.58c-1.99,2-2.86,4.88-3.18,7.69c-0.25,2.13-0.22,4.33,0.46,6.37
		c1.26,3.81,4.82,6.7,8.77,7.38c3.96,0.68,7.48-0.77,10.36-3.56c1.3-1.25,4.47-6.51,2.89-11.76
		C140.9,89.89,136.98,87.27,131.68,86.49z"/>
	<path class="st8" d="M134.32,93.64c-0.7-1.09-1.85-1.81-3.03-2.34c-2.03-0.92-4.33-1.38-6.51-0.92c-2.18,0.46-4.2,1.95-4.96,4.04
		c-0.51,1.42-0.42,2.98-0.32,4.49c0.06,0.98,0.13,1.98,0.45,2.91c0.89,2.55,3.72,3.88,6.42,3.95
		C134.82,106,137.5,98.58,134.32,93.64z"/>
	<path class="st10" d="M66.21,86.49c-3.15-0.46-6.57,0.42-8.81,2.68c-2.07,2.08-2.97,5.07-3.3,7.98c-0.25,2.21-0.22,4.5,0.47,6.62
		c1.31,3.96,5,6.96,9.11,7.67c4.11,0.71,7.77-0.8,10.76-3.7c1.35-1.3,4.65-6.76,3-12.22C75.78,90.02,71.71,87.3,66.21,86.49z"/>
	<path class="st8" d="M68.95,93.92c-0.73-1.13-1.92-1.88-3.15-2.43c-2.11-0.95-4.49-1.43-6.76-0.96s-4.37,2.02-5.15,4.2
		c-0.53,1.48-0.44,3.1-0.34,4.67c0.07,1.02,0.13,2.06,0.47,3.02c0.92,2.65,3.87,4.03,6.67,4.1C69.47,106.76,72.25,99.05,68.95,93.92
		z"/>
	<path class="st8" d="M25.85,123.83c-1.4-1.52-1.41-14.12,2.77-13.19c4.18,0.93,20.34,1.61,22.76,5.22
		c2.42,3.61-2.86,6.16-10.38,7.6S27.25,125.35,25.85,123.83z"/>
	<path class="st8" d="M32.26,94.64c-1.34-0.13-3.37,6.67-2.03,8.42c1.29,1.68,15.21,4.08,15.96,1.32
		C46.94,101.61,33.6,94.77,32.26,94.64z"/>
	<path class="st8" d="M169.8,100.14c0,0,2.41,3.2,2.99,5.07c0.59,1.87-1.09,4.6-5.75,4.88c-4.65,0.28-14.44-0.06-17.26-2.07
		c-0.98-0.7,1.02-3.5,5.41-5.93c4.39-2.43,14.3-4.24,14.3-4.24L169.8,100.14z"/>
	<path class="st8" d="M170.73,120.04c0,0-8.14-1.27-14.05-0.93c-5.9,0.34-10.01,1.12-10.42,3.3c-0.41,2.19,17.23,9.04,20.74,10.03
		c3.5,0.99,4.8,1.49,5.29-0.71C172.79,129.53,174.26,121.25,170.73,120.04z"/>
	<path class="st11" d="M115.7,107.02c-1.52-15.85,0.98-28.6-3.18-43.89c-1.34-4.92-4.56-16.93-8.16-20.13l-6.34,0.05
		c-9.95,8.55-16.57,54.4-18.09,62.92c-0.43,2.42-1.23,20.85,0.05,22.89c0,0,4.59,0.49,6.51,0.76c8.72,1.25,20.88-0.41,29.6,0.85
		c0,0-0.13-3.99-0.35-8.46C115.63,119.75,115.93,109.47,115.7,107.02z"/>
	<path class="st8" d="M90.93,128.15c-2.17,0.18-4.27-0.05-6.55,0.54c-2.11,0.55-5.19,1.66-3.18,5.29c1.02,1.85,3.94,3.76,5.52,5.16
		c2.62,2.35,3.34,2.15,9.61,6.64c0.48,0.35,0.91,0.81,1.48,0.98c0.78,0.23,1.61-0.03,2.36-0.34c4.66-1.95,5.57-4.83,9.27-8.27
		c9.04-8.43,7.96-8.92,0.91-9.71C104.86,127.83,96.49,127.71,90.93,128.15z"/>
	<path class="st9" d="M84.64,157.84c0,0,5.69,6.29,15.74,4.69c10.04-1.6,12.38-7.24,12.38-7.24"/>
	<path class="st8" d="M96.5,44.06c0,0,4.43-0.3,7.21-0.26c2.79,0.03,7.49,0.46,7.49,0.46s-5.32,43.4-9.49,43.52
		C97.54,87.9,96.5,44.06,96.5,44.06z"/>
	<path class="st8" d="M120.91,45.51c0,0,4.34,0.7,5.34,0.93c1.99,0.46,5.44,1.54,5.44,1.54s-2.56,21.18-5.31,21.1
		C123.63,69.01,120.91,45.51,120.91,45.51z"/>
	<path class="st8" d="M84.83,45.35c0,0-2.22,0.21-4.41,0.58c-2.87,0.48-8.72,2.36-8.72,2.36s2.56,23.23,5.89,23.17
		c3.05-0.06,6.54-21.16,7.1-24.65L84.83,45.35z"/>
</g>
</svg>
