<?xml version="1.0" encoding="UTF-8" standalone="no"?>
<!-- Generator: Adobe Illustrator 23.0.1, SVG Export Plug-In . SVG Version: 6.00 Build 0)  -->

<svg
   xmlns:dc="http://purl.org/dc/elements/1.1/"
   xmlns:cc="http://creativecommons.org/ns#"
   xmlns:rdf="http://www.w3.org/1999/02/22-rdf-syntax-ns#"
   xmlns:svg="http://www.w3.org/2000/svg"
   xmlns="http://www.w3.org/2000/svg"
   xmlns:sodipodi="http://sodipodi.sourceforge.net/DTD/sodipodi-0.dtd"
   xmlns:inkscape="http://www.inkscape.org/namespaces/inkscape"
   version="1.1"
   id="Layer_1"
   x="0px"
   y="0px"
   viewBox="0 0 200 200"
   style="enable-background:new 0 0 200 200;"
   xml:space="preserve"
   sodipodi:docname="TOBY GAME-04.svg"
   inkscape:version="0.92.2 5c3e80d, 2017-08-06"><metadata
     id="metadata43"><rdf:RDF><cc:Work
         rdf:about=""><dc:format>image/svg+xml</dc:format><dc:type
           rdf:resource="http://purl.org/dc/dcmitype/StillImage" /></cc:Work></rdf:RDF></metadata><defs
     id="defs41" /><sodipodi:namedview
     pagecolor="#ffffff"
     bordercolor="#666666"
     borderopacity="1"
     objecttolerance="10"
     gridtolerance="10"
     guidetolerance="10"
     inkscape:pageopacity="0"
     inkscape:pageshadow="2"
     inkscape:window-width="1041"
     inkscape:window-height="640"
     id="namedview39"
     showgrid="false"
     inkscape:zoom="1.18"
     inkscape:cx="100"
     inkscape:cy="100"
     inkscape:window-x="0"
     inkscape:window-y="0"
     inkscape:window-maximized="0"
     inkscape:current-layer="Layer_1" /><style
     type="text/css"
     id="style2">
	.st0{fill:#F076AD;}
	.st1{fill:#96D9F7;}
	.st2{fill:#F1672A;}
	.st3{fill:#006DB5;}
	.st4{fill:#F9A843;}
	.st5{fill:#F08F34;}
	.st6{fill:none;stroke:#533516;stroke-width:0.2604;stroke-miterlimit:10;}
	.st7{fill:none;stroke:#BE854F;stroke-width:0.2604;stroke-miterlimit:10;stroke-dasharray:2.6109,1.5666;}
	.st8{fill:#533516;}
	.st9{fill:none;stroke:#533516;stroke-width:2.0457;stroke-linecap:round;stroke-miterlimit:10;}
	.st10{fill:#FFFFFF;}
	.st11{fill:#ED5930;}
	.st12{fill:#00437C;}
	.st13{fill:none;stroke:#231F20;stroke-width:0.3403;stroke-miterlimit:10;}
	.st14{fill:#00BBE7;}
	.st15{fill:#CAA791;}
	.st16{fill:#00B381;}
	.st17{fill:#7FC578;}
	.st18{fill:#EC1652;}
	.st19{fill:#FFDD61;}
	.st20{fill:#F8C2D7;}
	.st21{fill:#643614;}
	.st22{fill:#BBBDBF;}
	.st23{fill:#808184;}
	.st24{fill:#A77F61;}
	.st25{clip-path:url(#SVGID_2_);fill:#F1672A;}
	.st26{clip-path:url(#SVGID_2_);}
	.st27{fill:#221F1F;}
	.st28{fill:#FFFFFF;stroke:#E5E6E6;stroke-width:0.3212;stroke-miterlimit:10;}
	.st29{fill:none;stroke:#221F1F;stroke-width:1.783;stroke-linecap:round;stroke-miterlimit:10;stroke-dasharray:0.9637,1.2849;}
	.st30{fill:none;}
	.st31{clip-path:url(#SVGID_4_);fill:#5E3316;stroke:#5E3316;stroke-width:1.1871;stroke-miterlimit:10;}
	.st32{clip-path:url(#SVGID_4_);fill:#C2986B;}
	.st33{clip-path:url(#SVGID_4_);fill:#FDDC0D;}
	.st34{clip-path:url(#SVGID_4_);fill:#A57C5D;}
	.st35{clip-path:url(#SVGID_4_);fill:#5E3316;}
	.st36{clip-path:url(#SVGID_4_);fill:#5E3316;stroke:#5E3316;stroke-width:1.7806;}
	.st37{clip-path:url(#SVGID_4_);fill:none;stroke:#5E3316;stroke-width:1.1871;stroke-miterlimit:10;}
	.st38{clip-path:url(#SVGID_4_);}
	.st39{fill:#231F20;}
	.st40{fill:#F69131;}
	.st41{fill:#868B8F;}
	.st42{fill:#505457;}
	.st43{fill:#17171B;}
	.st44{fill:#F4C231;}
	.st45{clip-path:url(#SVGID_6_);fill:#00B381;}
	.st46{clip-path:url(#SVGID_6_);}
	.st47{fill-rule:evenodd;clip-rule:evenodd;fill:#8A5D3B;}
	.st48{fill:#5E3316;}
	.st49{fill:#ED174F;}
	.st50{fill-rule:evenodd;clip-rule:evenodd;fill:#5E3316;}
	.st51{fill-rule:evenodd;clip-rule:evenodd;fill:#C2986B;}
	.st52{fill:#F9EC31;}
	.st53{fill:#55C6D9;}
	.st54{fill:#4CBC94;}
	.st55{fill:#FAAF40;}
	.st56{fill:#FFF100;}
	.st57{fill:#2CABE1;}
</style><rect
     class="st1"
     width="200"
     height="200"
     id="rect4" /><g
     id="g36"><path
       class="st40"
       d="M62.69,170.49c-4.34,2.32-8.67,4.19-9.97,3.22c-2.87-2.13-8.92-7.5-6.69-8.64c2.03-1.04,15.15-5,17.45-5.69   v-28.14h9.36v29.49C72.84,160.72,70.74,165.47,62.69,170.49z"
       id="path22" /><path
       class="st40"
       d="M77.38,171.1c-4.34,2.32-8.67,4.19-9.97,3.22c-2.87-2.13-8.92-7.5-6.69-8.64c2.03-1.04,15.15-5,17.45-5.69   v-28.14h9.36v29.49C87.53,161.33,85.43,166.08,77.38,171.1z"
       id="path24" /><path
       class="st10"
       d="M34.94,50.62c-0.68,7.49,2.62,14.74,2.62,17.09c0,2.35-21.72,48.04,11.15,66.32   c26.88,14.95,94.7-5.54,94.7-5.54l14.97-1.5c1.29-2.37-3.45-4.96-3.45-4.96l-73.96-51.1c0,0-8.19-7.74-8.41-15.19   c-0.22-7.45-1.1-17.4-9.4-20.9c-8.31-3.49-20.21-2.62-25.6,7.95c-3.21,5.17-2.52,9.6-2.52,9.6L34.94,50.62z"
       id="path26" /><path
       class="st41"
       d="M90.76,77.09c0,0-9.99-5.41-20.93-5.05C58.6,72.4,50.63,77.2,48.63,85.48c-2.51,10.39-3.18,25.57,12.12,32.86   s31.66,6.45,40.13,6.1s36.79-6.08,36.79-6.08l26.76,33.42l24.3-13.88L90.76,77.09z"
       id="path28" /><path
       class="st42"
       d="M69.8,121.74c0,0,19.17-4.86,33.09-9.56c15.85-5.36,23.55-12.93,23.55-12.93l26.93,16.69   C153.36,115.94,101.41,131.22,69.8,121.74z"
       id="path30" /><circle
       class="st43"
       cx="49.51"
       cy="48.36"
       r="2.26"
       id="circle32" /><path
       class="st44"
       d="M39.85,52.55c0,0-0.49-5.08-4.04-5.37c-3.56-0.29-21.18,2.56-21.67,4.53s21.06,6.82,22.25,6.02   C37.58,56.91,40.22,54.26,39.85,52.55z"
       id="path34" /></g></svg>